# xmcd
#
# Track frame offsets: 
#        150
#        25261
#        41808
#        58370
#        74891
#        93771
#        108054
#        124092
#        139660
#
# Disc length: 2021 seconds
#
# Revision: 0
# Processed by: cddbd v1.5.2PL0 Copyright (c) Steve Scherf et al.
# Submitted via: ExactAudioCopy v1.3
#
DISCID=8107e309
DTITLE=Roland Van Campenhout - Somewhere In The Mountains [CD1]
DYEAR=2019
DGENRE=Blues
TTITLE0=Me and Blind Willie
TTITLE1=Dream On Little Girl
TTITLE2=Midnight Star
TTITLE3=Cruising Down On Main Street
TTITLE4=Good As Bad Can Be
TTITLE5=The Truth
TTITLE6=Blues Wearing High Heeled Shoes
TTITLE7=Kosher Kama-Sutra
TTITLE8=Blind Mans Eyes
EXTD=
EXTT0=
EXTT1=
EXTT2=
EXTT3=
EXTT4=
EXTT5=
EXTT6=
EXTT7=
EXTT8=
PLAYORDER=
